<svg viewBox="0 0 40 40" xmlns="http://www.w3.org/2000/svg"><path d="m38.25 1.74a6 6 0 0 0 -8.42 0l-19.52 19.53a1 1 0 0 0 -.23.37l-4 11a1 1 0 0 0  .92 1.36 1 1 0 0 0  .34-.06l11-4a1 1 0 0 0  .37-.23l19.55-19.54a6 6 0 0 0 0-8.43zm-20.78 26.38-8.79 3.2 3.2-8.79 16.12-16.16 5.63 5.63zm19.37-19.37-1.84 1.8-5.55-5.55 1.8-1.79a4 4 0 1 1 5.59 5.59z" fill="#28728d"/><path d="m35 40h-32a3 3 0 0 1 -3-3v-32a3 3 0 0 1 3-3h20a1 1 0 0 1 0 2h-20a1 1 0 0 0 -1 1v32a1 1 0 0 0 1 1h32a1 1 0 0 0 1-1v-20a1 1 0 0 1 2 0v20a3 3 0 0 1 -3 3z" fill="#28728d"/></svg>