<svg xmlns="http://www.w3.org/2000/svg" viewBox="0 0 40 40"><defs><style>.cls-1{fill:#28728d;}</style></defs><title>Blog</title><g id="Layer_2" data-name="Layer 2"><g id="Connect"><path class="cls-1" d="M38.25,1.74a6,6,0,0,0-8.42,0L10.31,21.27a1,1,0,0,0-.23.37l-4,11A1,1,0,0,0,7,34a1,1,0,0,0,.34-.06l11-4a1,1,0,0,0,.37-.23L38.26,10.17a6,6,0,0,0,0-8.43ZM17.47,28.12l-8.79,3.2,3.2-8.79L28,6.37,33.63,12ZM36.84,8.75,35,10.55,29.45,5l1.8-1.79a4,4,0,1,1,5.59,5.59Z"/><path class="cls-1" d="M35,40H3a3,3,0,0,1-3-3V5A3,3,0,0,1,3,2H23a1,1,0,0,1,0,2H3A1,1,0,0,0,2,5V37a1,1,0,0,0,1,1H35a1,1,0,0,0,1-1V17a1,1,0,0,1,2,0V37A3,3,0,0,1,35,40Z"/></g></g></svg>