<?xml version="1.0" encoding="utf-8"?>
<!-- Generator: Adobe Illustrator 15.0.2, SVG Export Plug-In . SVG Version: 6.00 Build 0)  -->
<!DOCTYPE svg PUBLIC "-//W3C//DTD SVG 1.1//EN" "http://www.w3.org/Graphics/SVG/1.1/DTD/svg11.dtd">
<svg version="1.1" id="Layer_1" xmlns="http://www.w3.org/2000/svg" xmlns:xlink="http://www.w3.org/1999/xlink" x="0px" y="0px"
	 width="547.2px" height="172.8px" viewBox="0 0 547.2 172.8" enable-background="new 0 0 547.2 172.8" xml:space="preserve">
<g>
	<g>
		<path fill="#4E5156" d="M170.64,100.8c0-14.975,11.282-25.2,25.626-25.2c8.814,0,14.942,4.091,18.904,9.642l-5.157,2.849
			c-2.839-4.163-8.069-7.085-13.747-7.085c-10.91,0-19.199,8.104-19.199,19.795c0,11.541,8.29,19.795,19.199,19.795
			c5.678,0,10.908-2.995,13.747-7.085l5.23,2.775c-4.184,5.624-10.163,9.715-18.977,9.715C181.922,126,170.64,115.773,170.64,100.8"
			/>
		<path fill="#4E5156" d="M221.145,100.8c0-14.391,10.009-25.2,24.73-25.2c14.717,0,24.807,10.81,24.807,25.2
			c0,14.39-10.09,25.2-24.807,25.2C231.153,126,221.145,115.189,221.145,100.8 M264.255,100.8c0-11.396-7.247-19.795-18.38-19.795
			c-11.209,0-18.307,8.399-18.307,19.795c0,11.321,7.098,19.795,18.307,19.795C257.008,120.595,264.255,112.121,264.255,100.8"/>
		<polygon fill="#4E5156" points="315.58,125.999 286.519,85.8 286.519,125.999 280.314,125.999 280.314,75.6 286.668,75.6 
			315.357,114.967 315.357,75.6 321.559,75.6 321.559,125.999 		"/>
		<polygon fill="#4E5156" points="368.472,125.999 339.411,85.8 339.411,125.999 333.206,125.999 333.206,75.6 339.561,75.6 
			368.25,114.967 368.25,75.6 374.449,75.6 374.449,125.999 		"/>
		<polygon fill="#4E5156" points="386.103,125.999 386.103,75.6 418.753,75.6 418.753,81.191 392.304,81.191 392.304,97.437 
			418.227,97.437 418.227,103.028 392.304,103.028 392.304,120.408 418.753,120.408 418.753,125.999 		"/>
		<path fill="#4E5156" d="M426.593,100.8c0-14.975,11.281-25.2,25.626-25.2c8.813,0,14.942,4.091,18.902,9.642l-5.159,2.849
			c-2.835-4.163-8.065-7.085-13.743-7.085c-10.911,0-19.201,8.104-19.201,19.795c0,11.541,8.29,19.795,19.201,19.795
			c5.678,0,10.908-2.995,13.743-7.085l5.233,2.775c-4.184,5.624-10.164,9.715-18.977,9.715
			C437.874,126,426.593,115.773,426.593,100.8"/>
		<polygon fill="#4E5156" points="491.438,125.999 491.438,81.191 475.675,81.191 475.675,75.6 513.479,75.6 513.479,81.191 
			497.64,81.191 497.64,125.999 		"/>
	</g>
	<g>
		<path fill="#4D4F54" d="M172.8,68.4V46.8h9.285c3.627,0,5.847,2.266,5.847,5.505c0,2.722-1.751,4.535-3.658,4.956
			c2.219,0.355,4.064,2.72,4.064,5.31c0,3.466-2.22,5.83-6.035,5.83H172.8z M185.243,52.693c0-1.942-1.251-3.497-3.596-3.497h-6.252
			v6.964h6.252C183.992,56.16,185.243,54.671,185.243,52.693 M185.649,62.278c0-1.974-1.313-3.722-3.845-3.722h-6.409v7.447h6.409
			C184.21,66.004,185.649,64.577,185.649,62.278"/>
		<path fill="#4D4F54" d="M191.623,57.601c0-6.167,4.188-10.801,10.349-10.801c6.159,0,10.379,4.634,10.379,10.801
			s-4.221,10.8-10.379,10.8C195.812,68.4,191.623,63.768,191.623,57.601 M209.661,57.601c0-4.883-3.031-8.484-7.689-8.484
			c-4.689,0-7.66,3.601-7.66,8.484c0,4.851,2.971,8.482,7.66,8.482C206.63,66.083,209.661,62.451,209.661,57.601"/>
		<path fill="#4D4F54" d="M216.387,59.781V46.8h2.627v12.917c0,3.879,2.032,6.329,5.877,6.329c3.845,0,5.909-2.45,5.909-6.329V46.8
			h2.625v12.949c0,5.278-2.875,8.651-8.535,8.651C219.263,68.4,216.387,64.996,216.387,59.781"/>
		<polygon fill="#4D4F54" points="253.063,68.4 240.902,51.171 240.902,68.4 238.305,68.4 238.305,46.8 240.963,46.8 
			252.971,63.672 252.971,46.8 255.565,46.8 255.565,68.4 		"/>
		<path fill="#4D4F54" d="M260.446,68.4V46.8h7.128c6.501,0,10.69,4.696,10.69,10.816c0,6.152-4.189,10.784-10.69,10.784H260.446z
			 M275.576,57.616c0-4.663-2.846-8.419-8.002-8.419h-4.534v16.807h4.534C272.638,66.004,275.576,62.246,275.576,57.616"/>
		<polygon fill="#4D4F54" points="281.99,68.4 281.99,46.8 284.584,46.8 284.584,66.003 294.277,66.003 294.277,68.4 		"/>
		<polygon fill="#4D4F54" points="297.749,68.4 297.749,46.8 311.41,46.8 311.41,49.196 300.344,49.196 300.344,56.16 
			311.192,56.16 311.192,58.557 300.344,58.557 300.344,66.003 311.41,66.003 311.41,68.4 		"/>
		<path fill="#4D4F54" d="M314.29,65.081l1.563-2.002c1.344,1.563,3.595,3.004,6.534,3.004c3.719,0,4.907-2.004,4.907-3.632
			c0-5.383-12.347-2.379-12.347-9.829c0-3.442,3.064-5.823,7.188-5.823c3.159,0,5.628,1.097,7.38,2.942l-1.563,1.912
			c-1.563-1.753-3.751-2.506-6.033-2.506c-2.471,0-4.283,1.347-4.283,3.319c0,4.697,12.349,2.003,12.349,9.796
			c0,3.007-2.063,6.137-7.691,6.137C318.697,68.4,316.009,67.023,314.29,65.081"/>
		<path fill="#4D4F54" d="M332.613,65.081l1.563-2.002c1.344,1.563,3.595,3.004,6.534,3.004c3.72,0,4.907-2.004,4.907-3.632
			c0-5.383-12.348-2.379-12.348-9.829c0-3.442,3.063-5.823,7.189-5.823c3.157,0,5.627,1.097,7.379,2.942l-1.563,1.912
			c-1.563-1.753-3.752-2.506-6.034-2.506c-2.471,0-4.284,1.347-4.284,3.319c0,4.697,12.35,2.003,12.35,9.796
			c0,3.007-2.063,6.137-7.691,6.137C337.021,68.4,334.333,67.023,332.613,65.081"/>
	</g>
</g>
<g>
	<path fill-rule="evenodd" clip-rule="evenodd" fill="#2A738E" d="M106.771,76.134c5.668,14.518-1.499,30.89-16.025,36.557
		c-14.521,5.675-30.889-1.499-36.565-16.024c-5.664-14.522,1.501-30.891,16.023-36.559C84.724,54.436,101.098,61.608,106.771,76.134
		"/>
	<path fill-rule="evenodd" clip-rule="evenodd" fill="#01A78D" d="M129.084,106.755l-0.34,0.803
		c-5.417,12.351-15.542,22.643-29.094,27.933c-13.144,5.13-27.104,4.625-39.194-0.335c1.863-1.764,3.332-3.869,4.339-6.169
		c0.256-0.581,0.48-1.187,0.683-1.799c9.613,3.542,20.513,3.713,30.803-0.311c10.798-4.216,18.958-12.27,23.518-21.984l0.108,0.051
		l0.016,0.003C122.785,106.193,125.906,106.835,129.084,106.755"/>
	<path fill-rule="evenodd" clip-rule="evenodd" fill="#BCD74B" d="M33.006,109.291c-0.584-1.207-1.126-2.454-1.617-3.724
		c-5.295-13.549-4.599-27.972,0.817-40.326c1.72-3.903,3.907-7.606,6.523-11.018c1.458,2.954,3.802,5.238,6.578,6.638
		c-1.833,2.524-3.386,5.239-4.639,8.09c-4.461,10.182-5.038,22.076-0.675,33.257c0.215,0.535,0.432,1.064,0.658,1.592l-0.027,0.007
		C37.558,105.006,34.974,106.925,33.006,109.291"/>
	<path fill-rule="evenodd" clip-rule="evenodd" fill="#F68E51" d="M62.291,36.936c13.263-4.883,27.293-4.084,39.341,1.2
		c11.262,4.934,20.808,13.789,26.413,25.576c-2.441,0.063-4.912,0.533-7.32,1.475c-0.64,0.248-1.261,0.529-1.863,0.832
		c-4.709-8.891-12.199-15.589-20.937-19.419c-9.585-4.199-20.686-4.956-31.272-1.392c-0.165-1-0.44-1.992-0.818-2.965
		C65.024,40.171,63.798,38.382,62.291,36.936"/>
	<path fill-rule="evenodd" clip-rule="evenodd" fill="#F68E51" d="M60.212,44.436c1.771,4.526-0.471,9.633-4.999,11.401
		c-4.525,1.763-9.631-0.47-11.399-4.998c-1.766-4.531,0.473-9.636,4.993-11.402C53.34,37.67,58.446,39.907,60.212,44.436"/>
	<path fill-rule="evenodd" clip-rule="evenodd" fill="#01A78D" d="M142.939,79.624c3.099,7.938-0.821,16.893-8.771,19.995
		c-7.938,3.103-16.892-0.818-20.002-8.765c-3.1-7.944,0.829-16.896,8.773-19.998C130.883,67.752,139.833,71.673,142.939,79.624"/>
	<path fill-rule="evenodd" clip-rule="evenodd" fill="#BCD74B" d="M59.354,116.771c2.555,6.543-0.675,13.926-7.223,16.488
		c-6.553,2.552-13.933-0.681-16.49-7.23c-2.554-6.546,0.681-13.926,7.231-16.481C49.417,106.99,56.794,110.228,59.354,116.771"/>
</g>
</svg>
