<?xml version="1.0" encoding="UTF-8" standalone="no"?>
<!-- Generator: Adobe Illustrator 15.0.2, SVG Export Plug-In . SVG Version: 6.00 Build 0)  -->

<svg
   xmlns:dc="http://purl.org/dc/elements/1.1/"
   xmlns:cc="http://creativecommons.org/ns#"
   xmlns:rdf="http://www.w3.org/1999/02/22-rdf-syntax-ns#"
   xmlns:svg="http://www.w3.org/2000/svg"
   xmlns="http://www.w3.org/2000/svg"
   xmlns:sodipodi="http://sodipodi.sourceforge.net/DTD/sodipodi-0.dtd"
   xmlns:inkscape="http://www.inkscape.org/namespaces/inkscape"
   version="1.1"
   id="Layer_1"
   x="0px"
   y="0px"
   width="485.71811"
   height="105.42712"
   viewBox="0 0 485.7181 105.42712"
   enable-background="new 0 0 547.2 172.8"
   xml:space="preserve"
   inkscape:version="0.91 r13725"
   sodipodi:docname="connect-logo.svg"><metadata
     id="metadata3506"><rdf:RDF><cc:Work
         rdf:about=""><dc:format>image/svg+xml</dc:format><dc:type
           rdf:resource="http://purl.org/dc/dcmitype/StillImage" /><dc:title></dc:title></cc:Work></rdf:RDF></metadata><defs
     id="defs3504" /><sodipodi:namedview
     pagecolor="#ffffff"
     bordercolor="#666666"
     borderopacity="1"
     objecttolerance="10"
     gridtolerance="10"
     guidetolerance="10"
     inkscape:pageopacity="0"
     inkscape:pageshadow="2"
     inkscape:window-width="1366"
     inkscape:window-height="731"
     id="namedview3502"
     showgrid="false"
     fit-margin-top="0"
     fit-margin-left="0"
     fit-margin-right="0"
     fit-margin-bottom="0"
     inkscape:zoom="2.2149122"
     inkscape:cx="245.83911"
     inkscape:cy="52.713794"
     inkscape:window-x="0"
     inkscape:window-y="18"
     inkscape:window-maximized="1"
     inkscape:current-layer="Layer_1" /><g
     id="g3448"
     transform="translate(-27.760894,-33.686669)"><g
       id="g3450"><path
         d="m 170.64,100.8 c 0,-14.975 11.282,-25.2 25.626,-25.2 8.814,0 14.942,4.091 18.904,9.642 l -5.157,2.849 c -2.839,-4.163 -8.069,-7.085 -13.747,-7.085 -10.91,0 -19.199,8.104 -19.199,19.795 0,11.541 8.29,19.795 19.199,19.795 5.678,0 10.908,-2.995 13.747,-7.085 l 5.23,2.775 c -4.184,5.624 -10.163,9.715 -18.977,9.715 C 181.922,126 170.64,115.773 170.64,100.8"
         id="path3452"
         inkscape:connector-curvature="0"
         style="fill:#4e5156" /><path
         d="m 221.145,100.8 c 0,-14.391 10.009,-25.2 24.73,-25.2 14.717,0 24.807,10.81 24.807,25.2 0,14.39 -10.09,25.2 -24.807,25.2 -14.722,0 -24.73,-10.811 -24.73,-25.2 m 43.11,0 c 0,-11.396 -7.247,-19.795 -18.38,-19.795 -11.209,0 -18.307,8.399 -18.307,19.795 0,11.321 7.098,19.795 18.307,19.795 11.133,0 18.38,-8.474 18.38,-19.795"
         id="path3454"
         inkscape:connector-curvature="0"
         style="fill:#4e5156" /><polygon
         points="280.314,125.999 280.314,75.6 286.668,75.6 315.357,114.967 315.357,75.6 321.559,75.6 321.559,125.999 315.58,125.999 286.519,85.8 286.519,125.999 "
         id="polygon3456"
         style="fill:#4e5156" /><polygon
         points="333.206,125.999 333.206,75.6 339.561,75.6 368.25,114.967 368.25,75.6 374.449,75.6 374.449,125.999 368.472,125.999 339.411,85.8 339.411,125.999 "
         id="polygon3458"
         style="fill:#4e5156" /><polygon
         points="418.753,81.191 392.304,81.191 392.304,97.437 418.227,97.437 418.227,103.028 392.304,103.028 392.304,120.408 418.753,120.408 418.753,125.999 386.103,125.999 386.103,75.6 418.753,75.6 "
         id="polygon3460"
         style="fill:#4e5156" /><path
         d="m 426.593,100.8 c 0,-14.975 11.281,-25.2 25.626,-25.2 8.813,0 14.942,4.091 18.902,9.642 l -5.159,2.849 c -2.835,-4.163 -8.065,-7.085 -13.743,-7.085 -10.911,0 -19.201,8.104 -19.201,19.795 0,11.541 8.29,19.795 19.201,19.795 5.678,0 10.908,-2.995 13.743,-7.085 l 5.233,2.775 c -4.184,5.624 -10.164,9.715 -18.977,9.715 C 437.874,126 426.593,115.773 426.593,100.8"
         id="path3462"
         inkscape:connector-curvature="0"
         style="fill:#4e5156" /><polygon
         points="475.675,75.6 513.479,75.6 513.479,81.191 497.64,81.191 497.64,125.999 491.438,125.999 491.438,81.191 475.675,81.191 "
         id="polygon3464"
         style="fill:#4e5156" /></g><g
       id="g3466"><path
         d="m 172.8,68.4 0,-21.6 9.285,0 c 3.627,0 5.847,2.266 5.847,5.505 0,2.722 -1.751,4.535 -3.658,4.956 2.219,0.355 4.064,2.72 4.064,5.31 0,3.466 -2.22,5.83 -6.035,5.83 l -9.503,0 z m 12.443,-15.707 c 0,-1.942 -1.251,-3.497 -3.596,-3.497 l -6.252,0 0,6.964 6.252,0 c 2.345,0 3.596,-1.489 3.596,-3.467 m 0.406,9.585 c 0,-1.974 -1.313,-3.722 -3.845,-3.722 l -6.409,0 0,7.447 6.409,0 c 2.406,0.001 3.845,-1.426 3.845,-3.725"
         id="path3468"
         inkscape:connector-curvature="0"
         style="fill:#4d4f54" /><path
         d="m 191.623,57.601 c 0,-6.167 4.188,-10.801 10.349,-10.801 6.159,0 10.379,4.634 10.379,10.801 0,6.167 -4.221,10.8 -10.379,10.8 -6.16,-10e-4 -10.349,-4.633 -10.349,-10.8 m 18.038,0 c 0,-4.883 -3.031,-8.484 -7.689,-8.484 -4.689,0 -7.66,3.601 -7.66,8.484 0,4.851 2.971,8.482 7.66,8.482 4.658,0 7.689,-3.632 7.689,-8.482"
         id="path3470"
         inkscape:connector-curvature="0"
         style="fill:#4d4f54" /><path
         d="m 216.387,59.781 0,-12.981 2.627,0 0,12.917 c 0,3.879 2.032,6.329 5.877,6.329 3.845,0 5.909,-2.45 5.909,-6.329 l 0,-12.917 2.625,0 0,12.949 c 0,5.278 -2.875,8.651 -8.535,8.651 -5.627,0 -8.503,-3.404 -8.503,-8.619"
         id="path3472"
         inkscape:connector-curvature="0"
         style="fill:#4d4f54" /><polygon
         points="238.305,68.4 238.305,46.8 240.963,46.8 252.971,63.672 252.971,46.8 255.565,46.8 255.565,68.4 253.063,68.4 240.902,51.171 240.902,68.4 "
         id="polygon3474"
         style="fill:#4d4f54" /><path
         d="m 260.446,68.4 0,-21.6 7.128,0 c 6.501,0 10.69,4.696 10.69,10.816 0,6.152 -4.189,10.784 -10.69,10.784 l -7.128,0 z m 15.13,-10.784 c 0,-4.663 -2.846,-8.419 -8.002,-8.419 l -4.534,0 0,16.807 4.534,0 c 5.064,0 8.002,-3.758 8.002,-8.388"
         id="path3476"
         inkscape:connector-curvature="0"
         style="fill:#4d4f54" /><polygon
         points="284.584,66.003 294.277,66.003 294.277,68.4 281.99,68.4 281.99,46.8 284.584,46.8 "
         id="polygon3478"
         style="fill:#4d4f54" /><polygon
         points="311.41,49.196 300.344,49.196 300.344,56.16 311.192,56.16 311.192,58.557 300.344,58.557 300.344,66.003 311.41,66.003 311.41,68.4 297.749,68.4 297.749,46.8 311.41,46.8 "
         id="polygon3480"
         style="fill:#4d4f54" /><path
         d="m 314.29,65.081 1.563,-2.002 c 1.344,1.563 3.595,3.004 6.534,3.004 3.719,0 4.907,-2.004 4.907,-3.632 0,-5.383 -12.347,-2.379 -12.347,-9.829 0,-3.442 3.064,-5.823 7.188,-5.823 3.159,0 5.628,1.097 7.38,2.942 l -1.563,1.912 c -1.563,-1.753 -3.751,-2.506 -6.033,-2.506 -2.471,0 -4.283,1.347 -4.283,3.319 0,4.697 12.349,2.003 12.349,9.796 0,3.007 -2.063,6.137 -7.691,6.137 -3.597,0.001 -6.285,-1.376 -8.004,-3.318"
         id="path3482"
         inkscape:connector-curvature="0"
         style="fill:#4d4f54" /><path
         d="m 332.613,65.081 1.563,-2.002 c 1.344,1.563 3.595,3.004 6.534,3.004 3.72,0 4.907,-2.004 4.907,-3.632 0,-5.383 -12.348,-2.379 -12.348,-9.829 0,-3.442 3.063,-5.823 7.189,-5.823 3.157,0 5.627,1.097 7.379,2.942 l -1.563,1.912 c -1.563,-1.753 -3.752,-2.506 -6.034,-2.506 -2.471,0 -4.284,1.347 -4.284,3.319 0,4.697 12.35,2.003 12.35,9.796 0,3.007 -2.063,6.137 -7.691,6.137 -3.594,0.001 -6.282,-1.376 -8.002,-3.318"
         id="path3484"
         inkscape:connector-curvature="0"
         style="fill:#4d4f54" /></g></g><g
     id="g3486"
     transform="translate(-27.760894,-33.686669)"><path
       d="m 106.771,76.134 c 5.668,14.518 -1.499,30.89 -16.025,36.557 -14.521,5.675 -30.889,-1.499 -36.565,-16.024 -5.664,-14.522 1.501,-30.891 16.023,-36.559 14.52,-5.672 30.894,1.5 36.567,16.026"
       id="path3488"
       inkscape:connector-curvature="0"
       style="clip-rule:evenodd;fill:#2a738e;fill-rule:evenodd" /><path
       d="m 129.084,106.755 -0.34,0.803 c -5.417,12.351 -15.542,22.643 -29.094,27.933 -13.144,5.13 -27.104,4.625 -39.194,-0.335 1.863,-1.764 3.332,-3.869 4.339,-6.169 0.256,-0.581 0.48,-1.187 0.683,-1.799 9.613,3.542 20.513,3.713 30.803,-0.311 10.798,-4.216 18.958,-12.27 23.518,-21.984 l 0.108,0.051 0.016,0.003 c 2.862,1.246 5.983,1.888 9.161,1.808"
       id="path3490"
       inkscape:connector-curvature="0"
       style="clip-rule:evenodd;fill:#01a78d;fill-rule:evenodd" /><path
       d="m 33.006,109.291 c -0.584,-1.207 -1.126,-2.454 -1.617,-3.724 -5.295,-13.549 -4.599,-27.972 0.817,-40.326 1.72,-3.903 3.907,-7.606 6.523,-11.018 1.458,2.954 3.802,5.238 6.578,6.638 -1.833,2.524 -3.386,5.239 -4.639,8.09 -4.461,10.182 -5.038,22.076 -0.675,33.257 0.215,0.535 0.432,1.064 0.658,1.592 l -0.027,0.007 c -3.066,1.199 -5.65,3.118 -7.618,5.484"
       id="path3492"
       inkscape:connector-curvature="0"
       style="clip-rule:evenodd;fill:#bcd74b;fill-rule:evenodd" /><path
       d="m 62.291,36.936 c 13.263,-4.883 27.293,-4.084 39.341,1.2 11.262,4.934 20.808,13.789 26.413,25.576 -2.441,0.063 -4.912,0.533 -7.32,1.475 -0.64,0.248 -1.261,0.529 -1.863,0.832 C 114.153,57.128 106.663,50.43 97.925,46.6 88.34,42.401 77.239,41.644 66.653,45.208 c -0.165,-1 -0.44,-1.992 -0.818,-2.965 -0.811,-2.072 -2.037,-3.861 -3.544,-5.307"
       id="path3494"
       inkscape:connector-curvature="0"
       style="clip-rule:evenodd;fill:#f68e51;fill-rule:evenodd" /><path
       d="m 60.212,44.436 c 1.771,4.526 -0.471,9.633 -4.999,11.401 -4.525,1.763 -9.631,-0.47 -11.399,-4.998 -1.766,-4.531 0.473,-9.636 4.993,-11.402 4.533,-1.767 9.639,0.47 11.405,4.999"
       id="path3496"
       inkscape:connector-curvature="0"
       style="clip-rule:evenodd;fill:#f68e51;fill-rule:evenodd" /><path
       d="m 142.939,79.624 c 3.099,7.938 -0.821,16.893 -8.771,19.995 -7.938,3.103 -16.892,-0.818 -20.002,-8.765 -3.1,-7.944 0.829,-16.896 8.773,-19.998 7.944,-3.104 16.894,0.817 20,8.768"
       id="path3498"
       inkscape:connector-curvature="0"
       style="clip-rule:evenodd;fill:#01a78d;fill-rule:evenodd" /><path
       d="m 59.354,116.771 c 2.555,6.543 -0.675,13.926 -7.223,16.488 -6.553,2.552 -13.933,-0.681 -16.49,-7.23 -2.554,-6.546 0.681,-13.926 7.231,-16.481 6.545,-2.558 13.922,0.68 16.482,7.223"
       id="path3500"
       inkscape:connector-curvature="0"
       style="clip-rule:evenodd;fill:#bcd74b;fill-rule:evenodd" /></g></svg>