<?xml version="1.0" encoding="UTF-8" standalone="no"?>
<!-- Generator: Adobe Illustrator 15.0.2, SVG Export Plug-In . SVG Version: 6.00 Build 0)  -->

<svg
   xmlns:dc="http://purl.org/dc/elements/1.1/"
   xmlns:cc="http://creativecommons.org/ns#"
   xmlns:rdf="http://www.w3.org/1999/02/22-rdf-syntax-ns#"
   xmlns:svg="http://www.w3.org/2000/svg"
   xmlns="http://www.w3.org/2000/svg"
   xmlns:sodipodi="http://sodipodi.sourceforge.net/DTD/sodipodi-0.dtd"
   xmlns:inkscape="http://www.inkscape.org/namespaces/inkscape"
   version="1.1"
   id="Layer_1"
   x="0px"
   y="0px"
   width="136.80019"
   height="124.0744"
   viewBox="0 0 136.80019 124.0744"
   enable-background="new 0 0 302.4 252"
   xml:space="preserve"
   inkscape:version="0.91 r13725"
   sodipodi:docname="boundless_connect_vert_allcolor_inv.svg"><metadata
     id="metadata3475"><rdf:RDF><cc:Work
         rdf:about=""><dc:format>image/svg+xml</dc:format><dc:type
           rdf:resource="http://purl.org/dc/dcmitype/StillImage" /><dc:title></dc:title></cc:Work></rdf:RDF></metadata><defs
     id="defs3473" /><sodipodi:namedview
     pagecolor="#ffffff"
     bordercolor="#666666"
     borderopacity="1"
     objecttolerance="10"
     gridtolerance="10"
     guidetolerance="10"
     inkscape:pageopacity="0"
     inkscape:pageshadow="2"
     inkscape:window-width="1366"
     inkscape:window-height="731"
     id="namedview3471"
     showgrid="false"
     fit-margin-top="0"
     fit-margin-left="0"
     fit-margin-right="0"
     fit-margin-bottom="0"
     inkscape:zoom="2.2539683"
     inkscape:cx="61.920398"
     inkscape:cy="13.892961"
     inkscape:window-x="0"
     inkscape:window-y="18"
     inkscape:window-maximized="1"
     inkscape:current-layer="Layer_1" /><g
     id="g3455"
     transform="translate(-89.279599,-27.125575)"><path
       d="m 182.265,77.081 c 6.671,17.085 -1.764,36.353 -18.86,43.023 -17.09,6.679 -36.353,-1.765 -43.033,-18.859 -6.666,-17.092 1.766,-36.354 18.858,-43.025 17.09,-6.675 36.359,1.766 43.035,18.861"
       id="path3457"
       inkscape:connector-curvature="0"
       style="clip-rule:evenodd;fill:#2a738e;fill-rule:evenodd" /><path
       d="m 208.526,113.118 -0.4,0.945 c -6.375,14.535 -18.293,26.648 -34.241,32.874 -15.469,6.037 -31.897,5.442 -46.127,-0.395 2.192,-2.075 3.921,-4.553 5.106,-7.259 0.302,-0.685 0.567,-1.397 0.803,-2.117 11.314,4.168 24.143,4.37 36.253,-0.366 12.707,-4.961 22.311,-14.44 27.679,-25.874 l 0.125,0.06 0.021,0.004 c 3.367,1.467 7.04,2.223 10.781,2.128"
       id="path3459"
       inkscape:connector-curvature="0"
       style="clip-rule:evenodd;fill:#01a78d;fill-rule:evenodd" /><path
       d="m 95.453,116.103 c -0.688,-1.42 -1.326,-2.887 -1.904,-4.382 -6.231,-15.945 -5.412,-32.919 0.962,-47.459 2.025,-4.594 4.599,-8.951 7.678,-12.967 1.715,3.477 4.475,6.165 7.741,7.813 -2.158,2.971 -3.984,6.167 -5.458,9.521 -5.251,11.983 -5.929,25.981 -0.795,39.14 0.254,0.629 0.509,1.252 0.775,1.873 l -0.032,0.008 c -3.609,1.41 -6.65,3.669 -8.967,6.453"
       id="path3461"
       inkscape:connector-curvature="0"
       style="clip-rule:evenodd;fill:#bcd74b;fill-rule:evenodd" /><path
       d="m 129.917,30.95 c 15.611,-5.747 32.121,-4.807 46.3,1.412 13.254,5.806 24.487,16.228 31.084,30.1 -2.873,0.075 -5.781,0.627 -8.615,1.735 -0.754,0.292 -1.484,0.623 -2.193,0.979 -5.542,-10.464 -14.356,-18.347 -24.639,-22.854 -11.281,-4.942 -24.346,-5.833 -36.805,-1.638 -0.194,-1.176 -0.519,-2.344 -0.963,-3.489 -0.952,-2.438 -2.395,-4.543 -4.169,-6.245"
       id="path3463"
       inkscape:connector-curvature="0"
       style="clip-rule:evenodd;fill:#f68e51;fill-rule:evenodd" /><path
       d="m 127.472,39.776 c 2.084,5.327 -0.554,11.337 -5.883,13.418 -5.326,2.075 -11.335,-0.553 -13.416,-5.882 -2.079,-5.332 0.556,-11.34 5.875,-13.419 5.336,-2.079 11.345,0.553 13.424,5.883"
       id="path3465"
       inkscape:connector-curvature="0"
       style="clip-rule:evenodd;fill:#f68e51;fill-rule:evenodd" /><path
       d="m 224.832,81.189 c 3.646,9.342 -0.968,19.88 -10.324,23.531 -9.341,3.652 -19.877,-0.962 -23.539,-10.314 -3.648,-9.35 0.976,-19.885 10.325,-23.536 9.349,-3.654 19.882,0.961 23.538,10.319"
       id="path3467"
       inkscape:connector-curvature="0"
       style="clip-rule:evenodd;fill:#01a78d;fill-rule:evenodd" /><path
       d="m 126.46,124.907 c 3.006,7.7 -0.795,16.389 -8.5,19.405 -7.712,3.003 -16.397,-0.801 -19.407,-8.51 -3.005,-7.704 0.801,-16.388 8.51,-19.396 7.705,-3.011 16.385,0.8 19.397,8.501"
       id="path3469"
       inkscape:connector-curvature="0"
       style="clip-rule:evenodd;fill:#bcd74b;fill-rule:evenodd" /></g></svg>