<svg enable-background="new 0 0 547.2 172.8" height="105.42712" viewBox="0 0 485.7181 105.42712" width="485.71811" xmlns="http://www.w3.org/2000/svg"><g transform="translate(-27.760894 -33.686669)"><g fill="#4e5156"><path d="m170.64 100.8c0-14.975 11.282-25.2 25.626-25.2 8.814 0 14.942 4.091 18.904 9.642l-5.157 2.849c-2.839-4.163-8.069-7.085-13.747-7.085-10.91 0-19.199 8.104-19.199 19.795 0 11.541 8.29 19.795 19.199 19.795 5.678 0 10.908-2.995 13.747-7.085l5.23 2.775c-4.184 5.624-10.163 9.715-18.977 9.715-14.344-.001-25.626-10.228-25.626-25.201"/><path d="m221.145 100.8c0-14.391 10.009-25.2 24.73-25.2 14.717 0 24.807 10.81 24.807 25.2s-10.09 25.2-24.807 25.2c-14.722 0-24.73-10.811-24.73-25.2m43.11 0c0-11.396-7.247-19.795-18.38-19.795-11.209 0-18.307 8.399-18.307 19.795 0 11.321 7.098 19.795 18.307 19.795 11.133 0 18.38-8.474 18.38-19.795"/><path d="m280.314 125.999v-50.399h6.354l28.689 39.367v-39.367h6.202v50.399h-5.979l-29.061-40.199v40.199z"/><path d="m333.206 125.999v-50.399h6.355l28.689 39.367v-39.367h6.199v50.399h-5.977l-29.061-40.199v40.199z"/><path d="m418.753 81.191h-26.449v16.246h25.923v5.591h-25.923v17.38h26.449v5.591h-32.65v-50.399h32.65z"/><path d="m426.593 100.8c0-14.975 11.281-25.2 25.626-25.2 8.813 0 14.942 4.091 18.902 9.642l-5.159 2.849c-2.835-4.163-8.065-7.085-13.743-7.085-10.911 0-19.201 8.104-19.201 19.795 0 11.541 8.29 19.795 19.201 19.795 5.678 0 10.908-2.995 13.743-7.085l5.233 2.775c-4.184 5.624-10.164 9.715-18.977 9.715-14.344-.001-25.625-10.228-25.625-25.201"/><path d="m475.675 75.6h37.804v5.591h-15.839v44.808h-6.202v-44.808h-15.763z"/></g><g fill="#4d4f54"><path d="m172.8 68.4v-21.6h9.285c3.627 0 5.847 2.266 5.847 5.505 0 2.722-1.751 4.535-3.658 4.956 2.219.355 4.064 2.72 4.064 5.31 0 3.466-2.22 5.83-6.035 5.83h-9.503zm12.443-15.707c0-1.942-1.251-3.497-3.596-3.497h-6.252v6.964h6.252c2.345 0 3.596-1.489 3.596-3.467m.406 9.585c0-1.974-1.313-3.722-3.845-3.722h-6.409v7.447h6.409c2.406.001 3.845-1.426 3.845-3.725"/><path d="m191.623 57.601c0-6.167 4.188-10.801 10.349-10.801 6.159 0 10.379 4.634 10.379 10.801s-4.221 10.8-10.379 10.8c-6.16-.001-10.349-4.633-10.349-10.8m18.038 0c0-4.883-3.031-8.484-7.689-8.484-4.689 0-7.66 3.601-7.66 8.484 0 4.851 2.971 8.482 7.66 8.482 4.658 0 7.689-3.632 7.689-8.482"/><path d="m216.387 59.781v-12.981h2.627v12.917c0 3.879 2.032 6.329 5.877 6.329s5.909-2.45 5.909-6.329v-12.917h2.625v12.949c0 5.278-2.875 8.651-8.535 8.651-5.627 0-8.503-3.404-8.503-8.619"/><path d="m238.305 68.4v-21.6h2.658l12.008 16.872v-16.872h2.594v21.6h-2.502l-12.161-17.229v17.229z"/><path d="m260.446 68.4v-21.6h7.128c6.501 0 10.69 4.696 10.69 10.816 0 6.152-4.189 10.784-10.69 10.784zm15.13-10.784c0-4.663-2.846-8.419-8.002-8.419h-4.534v16.807h4.534c5.064 0 8.002-3.758 8.002-8.388"/><path d="m284.584 66.003h9.693v2.397h-12.287v-21.6h2.594z"/><path d="m311.41 49.196h-11.066v6.964h10.848v2.397h-10.848v7.446h11.066v2.397h-13.661v-21.6h13.661z"/><path d="m314.29 65.081 1.563-2.002c1.344 1.563 3.595 3.004 6.534 3.004 3.719 0 4.907-2.004 4.907-3.632 0-5.383-12.347-2.379-12.347-9.829 0-3.442 3.064-5.823 7.188-5.823 3.159 0 5.628 1.097 7.38 2.942l-1.563 1.912c-1.563-1.753-3.751-2.506-6.033-2.506-2.471 0-4.283 1.347-4.283 3.319 0 4.697 12.349 2.003 12.349 9.796 0 3.007-2.063 6.137-7.691 6.137-3.597.001-6.285-1.376-8.004-3.318"/><path d="m332.613 65.081 1.563-2.002c1.344 1.563 3.595 3.004 6.534 3.004 3.72 0 4.907-2.004 4.907-3.632 0-5.383-12.348-2.379-12.348-9.829 0-3.442 3.063-5.823 7.189-5.823 3.157 0 5.627 1.097 7.379 2.942l-1.563 1.912c-1.563-1.753-3.752-2.506-6.034-2.506-2.471 0-4.284 1.347-4.284 3.319 0 4.697 12.35 2.003 12.35 9.796 0 3.007-2.063 6.137-7.691 6.137-3.594.001-6.282-1.376-8.002-3.318"/></g></g><g clip-rule="evenodd" fill-rule="evenodd" transform="translate(-27.760894 -33.686669)"><path d="m106.771 76.134c5.668 14.518-1.499 30.89-16.025 36.557-14.521 5.675-30.889-1.499-36.565-16.024-5.664-14.522 1.501-30.891 16.023-36.559 14.52-5.672 30.894 1.5 36.567 16.026" fill="#2a738e"/><path d="m129.084 106.755-.34.803c-5.417 12.351-15.542 22.643-29.094 27.933-13.144 5.13-27.104 4.625-39.194-.335 1.863-1.764 3.332-3.869 4.339-6.169.256-.581.48-1.187.683-1.799 9.613 3.542 20.513 3.713 30.803-.311 10.798-4.216 18.958-12.27 23.518-21.984l.108.051.016.003c2.862 1.246 5.983 1.888 9.161 1.808" fill="#01a78d"/><path d="m33.006 109.291c-.584-1.207-1.126-2.454-1.617-3.724-5.295-13.549-4.599-27.972.817-40.326 1.72-3.903 3.907-7.606 6.523-11.018 1.458 2.954 3.802 5.238 6.578 6.638-1.833 2.524-3.386 5.239-4.639 8.09-4.461 10.182-5.038 22.076-.675 33.257.215.535.432 1.064.658 1.592l-.027.007c-3.066 1.199-5.65 3.118-7.618 5.484" fill="#bcd74b"/><path d="m62.291 36.936c13.263-4.883 27.293-4.084 39.341 1.2 11.262 4.934 20.808 13.789 26.413 25.576-2.441.063-4.912.533-7.32 1.475-.64.248-1.261.529-1.863.832-4.709-8.891-12.199-15.589-20.937-19.419-9.585-4.199-20.686-4.956-31.272-1.392-.165-1-.44-1.992-.818-2.965-.811-2.072-2.037-3.861-3.544-5.307" fill="#f68e51"/><path d="m60.212 44.436c1.771 4.526-.471 9.633-4.999 11.401-4.525 1.763-9.631-.47-11.399-4.998-1.766-4.531.473-9.636 4.993-11.402 4.533-1.767 9.639.47 11.405 4.999" fill="#f68e51"/><path d="m142.939 79.624c3.099 7.938-.821 16.893-8.771 19.995-7.938 3.103-16.892-.818-20.002-8.765-3.1-7.944.829-16.896 8.773-19.998 7.944-3.104 16.894.817 20 8.768" fill="#01a78d"/><path d="m59.354 116.771c2.555 6.543-.675 13.926-7.223 16.488-6.553 2.552-13.933-.681-16.49-7.23-2.554-6.546.681-13.926 7.231-16.481 6.545-2.558 13.922.68 16.482 7.223" fill="#bcd74b"/></g></svg>