<svg enable-background="new 0 0 302.4 252" height="124.0744" viewBox="0 0 136.80019 124.0744" width="136.80019" xmlns="http://www.w3.org/2000/svg"><g clip-rule="evenodd" fill-rule="evenodd" transform="translate(-89.279599 -27.125575)"><path d="m182.265 77.081c6.671 17.085-1.764 36.353-18.86 43.023-17.09 6.679-36.353-1.765-43.033-18.859-6.666-17.092 1.766-36.354 18.858-43.025 17.09-6.675 36.359 1.766 43.035 18.861" fill="#2a738e"/><path d="m208.526 113.118-.4.945c-6.375 14.535-18.293 26.648-34.241 32.874-15.469 6.037-31.897 5.442-46.127-.395 2.192-2.075 3.921-4.553 5.106-7.259.302-.685.567-1.397.803-2.117 11.314 4.168 24.143 4.37 36.253-.366 12.707-4.961 22.311-14.44 27.679-25.874l.125.06.021.004c3.367 1.467 7.04 2.223 10.781 2.128" fill="#01a78d"/><path d="m95.453 116.103c-.688-1.42-1.326-2.887-1.904-4.382-6.231-15.945-5.412-32.919.962-47.459 2.025-4.594 4.599-8.951 7.678-12.967 1.715 3.477 4.475 6.165 7.741 7.813-2.158 2.971-3.984 6.167-5.458 9.521-5.251 11.983-5.929 25.981-.795 39.14.254.629.509 1.252.775 1.873l-.032.008c-3.609 1.41-6.65 3.669-8.967 6.453" fill="#bcd74b"/><path d="m129.917 30.95c15.611-5.747 32.121-4.807 46.3 1.412 13.254 5.806 24.487 16.228 31.084 30.1-2.873.075-5.781.627-8.615 1.735-.754.292-1.484.623-2.193.979-5.542-10.464-14.356-18.347-24.639-22.854-11.281-4.942-24.346-5.833-36.805-1.638-.194-1.176-.519-2.344-.963-3.489-.952-2.438-2.395-4.543-4.169-6.245" fill="#f68e51"/><path d="m127.472 39.776c2.084 5.327-.554 11.337-5.883 13.418-5.326 2.075-11.335-.553-13.416-5.882-2.079-5.332.556-11.34 5.875-13.419 5.336-2.079 11.345.553 13.424 5.883" fill="#f68e51"/><path d="m224.832 81.189c3.646 9.342-.968 19.88-10.324 23.531-9.341 3.652-19.877-.962-23.539-10.314-3.648-9.35.976-19.885 10.325-23.536 9.349-3.654 19.882.961 23.538 10.319" fill="#01a78d"/><path d="m126.46 124.907c3.006 7.7-.795 16.389-8.5 19.405-7.712 3.003-16.397-.801-19.407-8.51-3.005-7.704.801-16.388 8.51-19.396 7.705-3.011 16.385.8 19.397 8.501" fill="#bcd74b"/></g></svg>