<svg xmlns="http://www.w3.org/2000/svg" viewBox="0 0 31.58 40"><defs><style>.cls-1{fill:#28728d;}</style></defs><title>Doc</title><g id="Layer_2" data-name="Layer 2"><g id="Layer_1-2" data-name="Layer 1"><path class="cls-1" d="M26.32,35.79H5.26a1.05,1.05,0,1,1,0-2.11H26.32a1.05,1.05,0,1,1,0,2.11Z"/><path class="cls-1" d="M30.53,4.21a1.05,1.05,0,0,0-1.05,1.05V36.84a1.05,1.05,0,0,1-1.05,1.05H5.26a3.16,3.16,0,1,1,0-6.32H24.21a3.16,3.16,0,0,0,3.16-3.16V3.16A3.16,3.16,0,0,0,24.21,0H3.16A3.16,3.16,0,0,0,0,3.16V34.74A5.27,5.27,0,0,0,5.26,40H28.42a3.16,3.16,0,0,0,3.16-3.16V5.26A1.05,1.05,0,0,0,30.53,4.21ZM8.42,2.11h4.21V15.35L11.27,14a1,1,0,0,0-1.49,0L8.42,15.35V2.11ZM2.11,3.16A1.05,1.05,0,0,1,3.16,2.11H6.32V17.89a1.05,1.05,0,0,0,1.8.74l2.41-2.41,2.41,2.41a1,1,0,0,0,.74.31,1,1,0,0,0,.4-.08,1.05,1.05,0,0,0,.65-1V2.11h9.47a1.05,1.05,0,0,1,1.05,1.05V28.42a1.05,1.05,0,0,1-1.05,1.05H5.26a5.25,5.25,0,0,0-3.16,1.05Z"/></g></g></svg>