<svg xmlns="http://www.w3.org/2000/svg" viewBox="0 0 40.01 40"><defs><style>.cls-1{fill:#28728d;}</style></defs><title>HowTo</title><g id="Layer_2" data-name="Layer 2"><g id="Layer_1-2" data-name="Layer 1"><path class="cls-1" d="M35.24,40a4.75,4.75,0,0,1-3.36-1.38h0L15.65,22.4A11.58,11.58,0,0,1,1,6.81a1.05,1.05,0,0,1,1.7-.31l6.13,6.13h3.77V8.85L6.48,2.71A1.05,1.05,0,0,1,6.79,1,11.62,11.62,0,0,1,23.14,11.57a11.42,11.42,0,0,1-.75,4.07L38.6,31.85A4.77,4.77,0,0,1,35.24,40Zm-1.88-2.87a2.67,2.67,0,0,0,4.55-1.91,2.62,2.62,0,0,0-.79-1.87h0L20.41,16.64a1.05,1.05,0,0,1-.21-1.18A9.38,9.38,0,0,0,21,11.57a9.48,9.48,0,0,0-9.47-9.47,9.83,9.83,0,0,0-2.42.3l5.27,5.27a1.05,1.05,0,0,1,.31.74v5.26a1.05,1.05,0,0,1-1.05,1.05H8.41a1.06,1.06,0,0,1-.74-.31L2.41,9.16a9.47,9.47,0,0,0,13.05,11,1.05,1.05,0,0,1,1.18.21L33.35,37.13Z"/></g></g></svg>