<svg viewBox="0 0 40.01 40" xmlns="http://www.w3.org/2000/svg"><path d="m35.24 40a4.75 4.75 0 0 1 -3.36-1.38h0l-16.23-16.22a11.58 11.58 0 0 1 -14.65-15.59 1.05 1.05 0 0 1  1.7-.31l6.13 6.13h3.77v-3.78l-6.12-6.14a1.05 1.05 0 0 1  .31-1.71 11.62 11.62 0 0 1  16.35 10.57 11.42 11.42 0 0 1 -.75 4.07l16.21 16.21a4.77 4.77 0 0 1 -3.36 8.15zm-1.88-2.87a2.67 2.67 0 0 0 4.55-1.91 2.62 2.62 0 0 0 -.79-1.87h0l-16.71-16.71a1.05 1.05 0 0 1 -.21-1.18 9.38 9.38 0 0 0  .8-3.89 9.48 9.48 0 0 0 -9.47-9.47 9.83 9.83 0 0 0 -2.42.3l5.27 5.27a1.05 1.05 0 0 1  .31.74v5.26a1.05 1.05 0 0 1 -1.05 1.05h-5.23a1.06 1.06 0 0 1 -.74-.31l-5.26-5.25a9.47 9.47 0 0 0 13.05 11 1.05 1.05 0 0 1  1.18.21l16.71 16.76z" fill="#28728d"/></svg>