<svg xmlns="http://www.w3.org/2000/svg" viewBox="0 0 40 34.68"><defs><style>.cls-1{fill:#28728d;}</style></defs><title>Learning</title><g id="Layer_2" data-name="Layer 2"><g id="Layer_1-2" data-name="Layer 1"><path class="cls-1" d="M39.28,8.07,20.33.07a.85.85,0,0,0-.67,0L.72,8.07A1.34,1.34,0,0,0,0,9.34,1.34,1.34,0,0,0,.72,10.6L6.32,13v7a1.53,1.53,0,0,0,.31.94A17.4,17.4,0,0,0,20,26.68a18.53,18.53,0,0,0,8.83-2.16,1.49,1.49,0,0,0,.56-1.75A1,1,0,0,0,28,22.06,16.74,16.74,0,0,1,20,24a16.75,16.75,0,0,1-8.91-2.47,14.09,14.09,0,0,1-2.66-2.13V13.86l11.25,4.75a.82.82,0,0,0,.67,0l11.25-4.75v2.38A4.06,4.06,0,0,0,29.47,20a4.16,4.16,0,0,0,1.88,3.66L29.51,33a1.61,1.61,0,0,0,.19,1.14,1,1,0,0,0,.83.51h4.21a1,1,0,0,0,.83-.51A1.61,1.61,0,0,0,35.76,33l-1.85-9.36A4.16,4.16,0,0,0,35.79,20a4.06,4.06,0,0,0-2.11-3.77V13l5.6-2.37A1.34,1.34,0,0,0,40,9.34a1.34,1.34,0,0,0-.72-1.26Zm-6.65,10.6A1.22,1.22,0,0,1,33.68,20a1.08,1.08,0,1,1-2.11,0A1.22,1.22,0,0,1,32.63,18.67ZM31.87,32l.76-3.84L33.39,32H31.87Zm.67-21.38L20.17,8c-.58-.12-1.12.37-1.21,1.1a1.34,1.34,0,0,0,.87,1.53l8.45,1.78L20,15.93,4.38,9.33,20,2.74l15.62,6.6-3.07,1.3Z"/></g></g></svg>