<svg viewBox="0 0 40 34.68" xmlns="http://www.w3.org/2000/svg"><path d="m39.28 8.07-18.95-8a .85.85 0 0 0 -.67 0l-18.94 8a1.34 1.34 0 0 0 -.72 1.27 1.34 1.34 0 0 0  .72 1.26l5.6 2.4v7a1.53 1.53 0 0 0  .31.94 17.4 17.4 0 0 0  13.37 5.74 18.53 18.53 0 0 0  8.83-2.16 1.49 1.49 0 0 0  .56-1.75 1 1 0 0 0 -1.39-.71 16.74 16.74 0 0 1 -8 1.94 16.75 16.75 0 0 1 -8.91-2.47 14.09 14.09 0 0 1 -2.66-2.13v-5.54l11.25 4.75a.82.82 0 0 0  .67 0l11.25-4.75v2.38a4.06 4.06 0 0 0 -2.13 3.76 4.16 4.16 0 0 0  1.88 3.66l-1.84 9.34a1.61 1.61 0 0 0  .19 1.14 1 1 0 0 0  .83.51h4.21a1 1 0 0 0  .83-.51 1.61 1.61 0 0 0  .19-1.14l-1.85-9.36a4.16 4.16 0 0 0 1.88-3.64 4.06 4.06 0 0 0 -2.11-3.77v-3.23l5.6-2.37a1.34 1.34 0 0 0  .72-1.29 1.34 1.34 0 0 0 -.72-1.26zm-6.65 10.6a1.22 1.22 0 0 1 1.05 1.33 1.08 1.08 0 1 1 -2.11 0 1.22 1.22 0 0 1  1.06-1.33zm-.76 13.33.76-3.84.76 3.84zm.67-21.38-12.37-2.62c-.58-.12-1.12.37-1.21 1.1a1.34 1.34 0 0 0  .87 1.53l8.45 1.78-8.28 3.52-15.62-6.6 15.62-6.59 15.62 6.6-3.07 1.3z" fill="#28728d"/></svg>