<?xml version="1.0" encoding="UTF-8" standalone="no"?>
<svg id="svg3436" xmlns:rdf="http://www.w3.org/1999/02/22-rdf-syntax-ns#" xmlns="http://www.w3.org/2000/svg" height="41px" width="41px" version="1.1" xmlns:cc="http://creativecommons.org/ns#" xmlns:dc="http://purl.org/dc/elements/1.1/" viewBox="0 0 41 41">
 <metadata id="metadata3449">
  <rdf:RDF>
   <cc:Work rdf:about="">
    <dc:format>image/svg+xml</dc:format>
    <dc:type rdf:resource="http://purl.org/dc/dcmitype/StillImage"/>
    <dc:title>icon-mapdata</dc:title>
   </cc:Work>
  </rdf:RDF>
 </metadata>
<!-- Generator: Sketch 44.1 (41455) - http://www.bohemiancoding.com/sketch -->
 <title id="title3438">icon-mapdata</title>
 <desc id="desc3440">Created with Sketch.</desc>
 <g id="Page-1" fill-rule="evenodd" fill="none">
  <g id="search-data" stroke="#28728D" stroke-width=".5" fill="#28728D" transform="translate(-35 -439)">
   <path id="icon-mapdata" d="m59.508 449.17c0-2.36-1.92-4.28-4.278-4.28-2.359 0-4.277 1.92-4.277 4.28s1.918 4.28 4.277 4.28c2.358 0 4.278-1.92 4.278-4.28zm-7.157 0c0-1.59 1.292-2.88 2.879-2.88 1.588 0 2.88 1.29 2.88 2.88s-1.292 2.88-2.88 2.88c-1.587 0-2.879-1.29-2.879-2.88zm2.879 17c1.867 0 10.245-10.52 10.245-15.71 0-5.66-4.597-10.25-10.245-10.25-5.649 0-10.246 4.59-10.246 10.25 0 5.19 8.379 15.71 10.246 15.71zm0-24.56c4.878 0 8.847 3.96 8.847 8.85 0 4.57-7.205 13.16-8.847 14.25-1.644-1.09-8.847-9.68-8.847-14.25 0-4.89 3.968-8.85 8.847-8.85zm16.29 6.94l-3.714-1.16c-0.369-0.12-0.762 0.09-0.876 0.46-0.115 0.37 0.089 0.76 0.458 0.87l3.277 1.03 2.861 27.18-8.081-2.13-0.736-15.08c-0.019-0.39-0.338-0.69-0.733-0.65-0.386 0.02-0.683 0.39-0.663 0.78l0.732 14.97-8.656 2.28v-7.18c0-0.38-0.314-0.69-0.699-0.69-0.386 0-0.699 0.31-0.699 0.69v6.89l-8.079-2.13 0.744-14.15c0.02-0.39-0.275-0.72-0.661-0.74-0.396-0.03-0.715 0.28-0.736 0.66l-0.762 14.48-7.557 2 2.861-27.18 3.252-1.02c0.37-0.11 0.574-0.5 0.458-0.87-0.114-0.37-0.502-0.58-0.875-0.46l-3.691 1.15c-0.267 0.08-0.458 0.32-0.488 0.6l-3.015 28.64c-0.023 0.23 0.066 0.45 0.241 0.6 0.174 0.15 0.411 0.21 0.633 0.15l8.25-2.18c0.117 0.18 0.306 0.32 0.538 0.33 0.381 0 0.66-0.25 0.716-0.59l8.171 2.16v0.24c0 0.39 0.313 0.7 0.699 0.7 0.373 0 0.673-0.29 0.692-0.66 0.01 0 9.014-2.37 9.014-2.37 0.112 0.1 0.239 0.18 0.383 0.18 0.173 0 0.294-0.08 0.4-0.18l8.97 2.37c0.058 0.01 0.119 0.02 0.177 0.02 0.165 0 0.328-0.06 0.455-0.17 0.175-0.15 0.265-0.37 0.241-0.6l-3.013-28.64c-0.03-0.28-0.222-0.52-0.489-0.6z"/>
  </g>
 </g>
</svg>
