<?xml version="1.0" encoding="UTF-8"?>
<svg width="41px" height="45px" viewBox="0 0 41 45" version="1.1" xmlns="http://www.w3.org/2000/svg" xmlns:xlink="http://www.w3.org/1999/xlink">
    <!-- Generator: Sketch 44.1 (41455) - http://www.bohemiancoding.com/sketch -->
    <title>icon-mapdata</title>
    <desc>Created with Sketch.</desc>
    <defs></defs>
    <g id="Page-1" stroke="none" stroke-width="1" fill="none" fill-rule="evenodd">
        <g id="search-data" transform="translate(-35.000000, -359.000000)" fill="#28728D">
            <g id="icon-mapdata" transform="translate(35.000000, 359.189453)">
                <g id="map" transform="translate(0.000000, 16.453138)">
                    <g id="Group">
                        <path d="M22.5476162,0.590295263 L11.5855841,4.64337867 L0.124710267,0.407386872 L0.124710267,23.2210517 L11.3236922,27.3593542 L11.4109892,27.3926102 L11.6791166,27.3905313 L22.5455379,23.4039601 L33.9211926,27.6087747 L33.9211926,4.79718826 L22.5476162,0.590295263 Z M11.0638793,26.1933128 L1.12862805,22.5205958 L1.12862805,1.84779032 L11.0638793,5.52050781 L11.0638793,26.1933128 Z M12.0677971,5.50387978 L22.0446184,1.84571195 L22.0446184,22.5205958 L12.0677971,26.2078624 L12.0677971,5.50387978 Z M32.9172748,26.1683713 L23.0485357,22.5185169 L23.0485357,1.84779032 L32.9172748,5.49556576 L32.9172748,26.1683713 Z" id="Shape" stroke="#28728D" stroke-width="0.2"></path>
                        <path d="M1.91014572,18.7356394 L1.8997528,17.9042376 C2.16164463,17.9021587 2.41730081,17.8751382 2.65217167,17.8252541 L2.82260931,18.6400279 C2.53369705,18.7003044 2.2260784,18.7314821 1.91014572,18.7356394 L1.91014572,18.7356394 Z M3.71428758,18.3386449 L3.3484708,17.5924616 C3.56671363,17.4843794 3.76209278,17.3492768 3.93253041,17.189232 L4.50411927,17.7919981 C4.27340514,18.0081625 4.00735657,18.1931493 3.71428758,18.3386449 L3.71428758,18.3386449 Z M5.09233563,17.0375008 L4.36901661,16.6238788 C4.48541286,16.4222635 4.5810238,16.1915499 4.65584996,15.9421294 L5.45399567,16.1790786 C5.3604631,16.4908546 5.23990958,16.7797663 5.09233563,17.0375008 L5.09233563,17.0375008 Z M5.6847098,15.3871686 L4.89695648,15.1231984 C4.99256742,14.8342861 5.10065018,14.5620024 5.21704643,14.3042673 L5.97570042,14.6451426 C5.86969656,14.8779351 5.77200672,15.1273556 5.6847098,15.3871686 L5.6847098,15.3871686 Z M29.3734249,15.2042602 C29.2861274,14.9361327 29.1988305,14.6659274 29.1136119,14.3957221 L29.9076004,14.1504583 C29.9907405,14.4123501 30.0759596,14.6783987 30.1632565,14.9423683 L29.3734249,15.2042602 Z M19.0266294,14.8696206 L18.7460317,14.0860245 C18.9559606,14.0111983 19.2012244,13.9010377 19.4714297,13.7680135 L19.8393248,14.5121183 C19.5358634,14.6617706 19.2615008,14.784402 19.0266294,14.8696206 L19.0266294,14.8696206 Z M17.8896879,14.8509141 C17.7296427,14.7636172 17.449045,14.6680058 17.1767608,14.5786305 L17.440731,13.7887982 C17.8169401,13.9155874 18.0809103,14.0070416 18.2908391,14.121359 L17.8896879,14.8509141 Z M16.370301,14.2980322 C16.1188021,14.2044991 15.8485963,14.0943385 15.567998,13.9654715 L15.9171868,13.2109743 C16.1790786,13.3315278 16.4284992,13.4333744 16.6612917,13.5206713 L16.370301,14.2980322 Z M20.6000577,14.1172022 L20.2030632,13.387647 C20.4379341,13.25878 20.6831979,13.1236768 20.9305401,12.982339 L21.3400053,13.7056581 C21.0885059,13.8469969 20.8390853,13.9883347 20.6000577,14.1172022 L20.6000577,14.1172022 Z M6.33735993,13.9384506 L5.61819765,13.5206713 C5.77408509,13.2546227 5.9362087,13.0072806 6.10248906,12.7807237 L6.77176722,13.2733291 C6.6221149,13.4770228 6.47661986,13.6973446 6.33735993,13.9384506 L6.33735993,13.9384506 Z M28.8662698,13.5892618 L28.6293205,12.7807237 L29.4274662,12.5479312 L29.6644155,13.3523126 L28.8662698,13.5892618 Z M14.7885593,13.560163 C14.5495311,13.4188247 14.302189,13.2608584 14.0527684,13.0821073 L14.5370598,12.4065929 C14.7636172,12.5707949 14.9880957,12.7142116 15.2063385,12.8410002 L14.7885593,13.560163 Z M22.0716389,13.2878788 L21.6580163,12.5666382 L22.3917283,12.1509373 L22.8011935,12.8742563 L22.0716389,13.2878788 Z M7.27476557,12.6622491 L6.6657639,12.0968959 C6.87153544,11.8765741 7.0897788,11.6687242 7.31425728,11.4816586 L7.84427605,12.1218379 C7.65928876,12.2777259 7.46598798,12.456477 7.27476557,12.6622491 L7.27476557,12.6622491 Z M13.3647839,12.5354605 C13.2858004,12.4668699 13.206817,12.3962005 13.1299125,12.3234527 C13.0010455,12.2049781 12.8742563,12.0968959 12.7495465,11.9971277 L13.2629367,11.344477 C13.404275,11.4567165 13.5497706,11.5793484 13.6973446,11.7165294 C13.7680135,11.7830416 13.8386823,11.8474754 13.9093518,11.9098302 L13.3647839,12.5354605 Z M23.5286703,12.4710267 L23.1337542,11.7393931 C23.4185097,11.5855841 23.6783227,11.4525598 23.9111152,11.3486343 L24.2540683,12.1052099 C24.0379038,12.2028997 23.7926405,12.3296884 23.5286703,12.4710267 L23.5286703,12.4710267 Z M28.4069204,12.0553258 C28.3258586,11.8952811 28.1928343,11.7768059 27.9995335,11.689509 L28.3404083,10.930855 C28.7062251,11.0971354 28.9785093,11.3465559 29.146868,11.6749593 L28.4069204,12.0553258 Z M24.9815451,11.8474754 L24.7633017,11.0451724 C25.0251935,10.9745035 25.3120269,10.905913 25.6092532,10.8477148 L25.7672195,11.6624886 C25.4907785,11.7186083 25.22473,11.7809632 24.9815451,11.8474754 L24.9815451,11.8474754 Z M8.47198413,11.6832734 L8.06044051,10.9599538 C8.29323301,10.8290079 8.63410721,10.6648065 8.9417264,10.6357071 L9.11008513,11.4525598 L9.01655203,11.4650305 C8.92509836,11.4733446 8.73179705,11.5356999 8.47198413,11.6832734 L8.47198413,11.6832734 Z M12.1114455,11.5751911 C11.8848887,11.4525598 11.6520962,11.361105 11.4234604,11.2987502 L11.6396249,10.4964472 C11.9306155,10.5754306 12.2216062,10.6918269 12.5042828,10.8435576 L12.1114455,11.5751911 Z M26.5549728,11.5481707 L26.4801467,10.7209262 C26.6672123,10.7042982 26.8584342,10.7001409 27.0330291,10.6959836 C27.1535821,10.6959836 27.2741351,10.7001409 27.388453,10.7084549 L27.3260981,11.5377783 C27.2263299,11.5294643 27.1224044,11.5315427 27.0226362,11.5273854 C26.8688271,11.525307 26.7129392,11.533621 26.5549728,11.5481707 L26.5549728,11.5481707 Z M9.78975621,10.456956 C10.1077673,10.396679 10.3842082,10.3675802 10.6627275,10.3675802 L10.7042982,10.7832811 L10.6918269,11.198982 C10.4382496,11.1969036 10.2116922,11.2218456 9.94980092,11.2738081 L9.78975621,10.456956 Z" id="Shape" opacity="0.245980525"></path>
                        <polygon id="Shape" opacity="0.245980525" points="31.2108228 16.2850825 30.6226059 15.6968656 29.6020601 16.7194898 28.5794364 15.6968656 27.9891406 16.2850825 29.0138437 17.3077067 27.9891406 18.3303309 28.5794364 18.9185477 29.6020601 17.895923 30.6226059 18.9185477 31.2108228 18.3303309 30.1881986 17.3077067"></polygon>
                    </g>
                </g>
                <path d="M29.0914254,28.33745 C30.4664408,28.33745 40.0915481,18.7373429 40.0915481,10.4172501 C40.0915481,4.76179115 35.1666254,0.17713585 29.0914254,0.17713585 C23.0162254,0.17713585 18.0913027,4.76179115 18.0913027,10.4172501 C18.0913027,18.7373429 27.7164101,28.33745 29.0914254,28.33745 Z M29.0914254,14.8694737 C31.1164921,14.8694737 32.758133,13.2249777 32.758133,11.1963892 C32.758133,9.16780068 31.1164921,7.52330475 29.0914254,7.52330475 C27.0663587,7.52330475 25.4247178,9.16780068 25.4247178,11.1963892 C25.4247178,13.2249777 27.0663587,14.8694737 29.0914254,14.8694737 Z" id="Pin-Active-Copy-3"></path>
            </g>
        </g>
    </g>
</svg>