<svg height="41" viewBox="0 0 41 41" width="41" xmlns="http://www.w3.org/2000/svg"><path d="m59.508 449.17c0-2.36-1.92-4.28-4.278-4.28-2.359 0-4.277 1.92-4.277 4.28s1.918 4.28 4.277 4.28c2.358 0 4.278-1.92 4.278-4.28zm-7.157 0c0-1.59 1.292-2.88 2.879-2.88 1.588 0 2.88 1.29 2.88 2.88s-1.292 2.88-2.88 2.88c-1.587 0-2.879-1.29-2.879-2.88zm2.879 17c1.867 0 10.245-10.52 10.245-15.71 0-5.66-4.597-10.25-10.245-10.25-5.649 0-10.246 4.59-10.246 10.25 0 5.19 8.379 15.71 10.246 15.71zm0-24.56c4.878 0 8.847 3.96 8.847 8.85 0 4.57-7.205 13.16-8.847 14.25-1.644-1.09-8.847-9.68-8.847-14.25 0-4.89 3.968-8.85 8.847-8.85zm16.29 6.94-3.714-1.16c-.369-.12-.762.09-.876.46-.115.37.089.76.458.87l3.277 1.03 2.861 27.18-8.081-2.13-.736-15.08c-.019-.39-.338-.69-.733-.65-.386.02-.683.39-.663.78l.732 14.97-8.656 2.28v-7.18c0-.38-.314-.69-.699-.69-.386 0-.699.31-.699.69v6.89l-8.079-2.13.744-14.15c.02-.39-.275-.72-.661-.74-.396-.03-.715.28-.736.66l-.762 14.48-7.557 2 2.861-27.18 3.252-1.02c.37-.11.574-.5.458-.87-.114-.37-.502-.58-.875-.46l-3.691 1.15c-.267.08-.458.32-.488.6l-3.015 28.64c-.023.23.066.45.241.6.174.15.411.21.633.15l8.25-2.18c.117.18.306.32.538.33.381 0 .66-.25.716-.59l8.171 2.16v.24c0 .39.313.7.699.7.373 0 .673-.29.692-.66.01 0 9.014-2.37 9.014-2.37.112.1.239.18.383.18.173 0 .294-.08.4-.18l8.97 2.37c.058.01.119.02.177.02.165 0 .328-.06.455-.17.175-.15.265-.37.241-.6l-3.013-28.64c-.03-.28-.222-.52-.489-.6z" fill="#28728d" fill-rule="evenodd" stroke="#28728d" stroke-width=".5" transform="translate(-35 -439)"/></svg>