<svg xmlns="http://www.w3.org/2000/svg" width="15" height="15" viewBox="0 0 15 15">
  <g fill="none" fill-rule="evenodd">
    <circle cx="7.79" cy="7.149" r="7.127" fill="#F48348" transform="matrix(-1 0 0 1 15.58 0)"/>
    <path fill="#FFF" d="M10.1850806,7.14915882 C10.1850806,7.04116539 10.1406127,6.93952452 10.064382,6.86329387 L7.21843769,4.01734951 C7.14220704,3.94111886 7.04056617,3.89665098 6.93257274,3.89665098 C6.71023334,3.89665098 6.52600926,4.08087506 6.52600926,4.30321446 L6.52600926,9.99510317 C6.52600926,10.2174426 6.71023334,10.4016667 6.93257274,10.4016667 C7.04056617,10.4016667 7.14220704,10.3571988 7.21843769,10.2809681 L10.064382,7.43502376 C10.1406127,7.35879311 10.1850806,7.25715224 10.1850806,7.14915882 L10.1850806,7.14915882 Z" transform="matrix(1 0 0 -1 0 14.298)"/>
  </g>
</svg>
