<svg height="36" viewBox="0 0 35 36" width="35" xmlns="http://www.w3.org/2000/svg"><g fill="#28728d" fill-rule="evenodd" transform="translate(.278 .83)"><path d="m21.4 18.165 3.117-3.117c.265-.265.265-.694 0-.959s-.694-.265-.959 0l-3.117 3.117-3.117-3.117 3.117-3.116c.265-.265.265-.695 0-.959-.265-.2653-.694-.2653-.959 0l-3.116 3.116-1.079-1.079-1.918 1.918c-1.74 1.74-1.956 4.427-.647 6.401l-2.9494 2.949 1.4384 1.439 2.949-2.949c1.975 1.308 4.661 1.092 6.401-.648l1.918-1.917z" fill-rule="nonzero" transform="matrix(.707106781187 -.707106781187 .707106781187 .707106781187 -7.172397154371 17.25630151519)"/><path d="m17.244 25.397c-4.472 0-8.1103-3.639-8.1103-8.111s3.6383-8.1101 8.1103-8.1101 8.11 3.6381 8.11 8.1101-3.638 8.111-8.11 8.111zm0-14.532c-3.54 0-6.421 2.881-6.421 6.421s2.881 6.421 6.421 6.421 6.421-2.881 6.421-6.421-2.881-6.421-6.421-6.421z" opacity="0"/><path d="m19.669 34.479h-4.85l-1.399-4.196c-.926-.272-1.818-.641-2.663-1.103l-3.9547 1.977-3.4303-3.429 1.978-3.955c-.4613-.844-.8301-1.736-1.1025-2.663l-4.196-1.399.000035-4.85 4.196-1.398c.2724-.928.6412-1.819 1.1025-2.663l-1.978-3.9554 3.4303-3.4303 3.9547 1.978c.845-.4613 1.737-.831 2.663-1.1025l1.399-4.196 4.85.00003 1.399 4.196c.925.2715 1.818.6412 2.663 1.1025l3.955-1.978 3.43 3.4303-1.978 3.9554c.461.844.83 1.735 1.102 2.663l4.196 1.398v4.85l-4.196 1.399c-.272.927-.641 1.819-1.102 2.663l1.978 3.955-3.43 3.429-3.955-1.977c-.845.462-1.738.831-2.663 1.103l-1.399 4.196zm-3.54-2.882h2.23l1.202-3.605.411-.106c.998-.256 1.954-.651 2.839-1.175l.366-.216 3.398 1.699 1.577-1.577-1.7-3.398.217-.366c.522-.883.918-1.838 1.176-2.84l.105-.41 3.605-1.202v-2.23l-3.605-1.201-.105-.411c-.258-1.002-.654-1.957-1.176-2.839l-.217-.367 1.7-3.3976-1.577-1.5769-3.398 1.6993-.366-.2162c-.885-.524-1.841-.9189-2.839-1.1754l-.411-.1056-1.202-3.6049h-2.23l-1.202 3.6049-.411.1056c-.998.2565-1.954.6514-2.839 1.1754l-.366.2162-3.3978-1.6993-1.577 1.5769 1.7002 3.3976-.2171.367c-.5223.882-.918 1.837-1.1762 2.839l-.1057.411-3.604 1.201v2.23l3.604 1.202.1057.41c.2582 1.002.6539 1.957 1.1762 2.84l.2171.366-1.7002 3.398 1.577 1.577 3.3978-1.699.366.216c.885.524 1.841.919 2.839 1.175l.411.106z"/></g></svg>