<?xml version="1.0" encoding="UTF-8" standalone="no"?>
<svg id="svg2" xmlns:rdf="http://www.w3.org/1999/02/22-rdf-syntax-ns#" xmlns="http://www.w3.org/2000/svg" height="36px" width="35px" version="1.1" xmlns:cc="http://creativecommons.org/ns#" xmlns:dc="http://purl.org/dc/elements/1.1/" viewBox="0 0 35 36">
 <metadata id="metadata18">
  <rdf:RDF>
   <cc:Work rdf:about="">
    <dc:format>image/svg+xml</dc:format>
    <dc:type rdf:resource="http://purl.org/dc/dcmitype/StillImage"/>
    <dc:title>icon-plugin</dc:title>
   </cc:Work>
  </rdf:RDF>
 </metadata>
<!-- Generator: Sketch 44.1 (41455) - http://www.bohemiancoding.com/sketch -->
 <title id="title4">icon-plugin</title>
 <desc id="desc6">Created with Sketch.</desc>
 <g id="Page-1" fill-rule="evenodd" fill="none">
  <g id="search-plugins" fill="#28728D" transform="translate(-34 -207)">
   <g id="icon-plugin" transform="translate(34.278 207.83)">
    <path id="path3-copy" fill-rule="nonzero" d="m21.4 18.165l3.117-3.117c0.265-0.265 0.265-0.694 0-0.959s-0.694-0.265-0.959 0l-3.117 3.117-3.117-3.117 3.117-3.116c0.265-0.265 0.265-0.695 0-0.959-0.265-0.2653-0.694-0.2653-0.959 0l-3.116 3.116-1.079-1.079-1.918 1.918c-1.74 1.74-1.956 4.427-0.647 6.401l-2.9494 2.949 1.4384 1.439 2.949-2.949c1.975 1.308 4.661 1.092 6.401-0.648l1.918-1.917-1.079-1.079z" transform="translate(17.244 17.286) rotate(-45) translate(-17.244 -17.286)"/>
    <path id="Fill-45" opacity="0" d="m17.244 25.397c-4.472 0-8.1103-3.639-8.1103-8.111s3.6383-8.1101 8.1103-8.1101 8.11 3.6381 8.11 8.1101-3.638 8.111-8.11 8.111zm0-14.532c-3.54 0-6.421 2.881-6.421 6.421s2.881 6.421 6.421 6.421 6.421-2.881 6.421-6.421-2.881-6.421-6.421-6.421z"/>
    <path id="Fill-46" d="m19.669 34.479h-4.85l-1.399-4.196c-0.926-0.272-1.818-0.641-2.663-1.103l-3.9547 1.977-3.4303-3.429 1.978-3.955c-0.4613-0.844-0.8301-1.736-1.1025-2.663l-4.196-1.399 0.000035-4.85 4.196-1.398c0.2724-0.928 0.6412-1.819 1.1025-2.663l-1.978-3.9554 3.4303-3.4303 3.9547 1.978c0.845-0.4613 1.737-0.831 2.663-1.1025l1.399-4.196 4.85 0.00003 1.399 4.196c0.925 0.2715 1.818 0.6412 2.663 1.1025l3.955-1.978 3.43 3.4303-1.978 3.9554c0.461 0.844 0.83 1.735 1.102 2.663l4.196 1.398v4.85l-4.196 1.399c-0.272 0.927-0.641 1.819-1.102 2.663l1.978 3.955-3.43 3.429-3.955-1.977c-0.845 0.462-1.738 0.831-2.663 1.103l-1.399 4.196zm-3.54-2.882h2.23l1.202-3.605 0.411-0.106c0.998-0.256 1.954-0.651 2.839-1.175l0.366-0.216 3.398 1.699 1.577-1.577-1.7-3.398 0.217-0.366c0.522-0.883 0.918-1.838 1.176-2.84l0.105-0.41 3.605-1.202v-2.23l-3.605-1.201-0.105-0.411c-0.258-1.002-0.654-1.957-1.176-2.839l-0.217-0.367 1.7-3.3976-1.577-1.5769-3.398 1.6993-0.366-0.2162c-0.885-0.524-1.841-0.9189-2.839-1.1754l-0.411-0.1056-1.202-3.6049h-2.23l-1.202 3.6049-0.411 0.1056c-0.998 0.2565-1.954 0.6514-2.839 1.1754l-0.366 0.2162-3.3978-1.6993-1.577 1.5769 1.7002 3.3976-0.2171 0.367c-0.5223 0.882-0.918 1.837-1.1762 2.839l-0.1057 0.411-3.604 1.201v2.23l3.604 1.202 0.1057 0.41c0.2582 1.002 0.6539 1.957 1.1762 2.84l0.2171 0.366-1.7002 3.398 1.577 1.577 3.3978-1.699 0.366 0.216c0.885 0.524 1.841 0.919 2.839 1.175l0.411 0.106 1.202 3.605z"/>
   </g>
  </g>
 </g>
</svg>
