<svg xmlns="http://www.w3.org/2000/svg" viewBox="0 0 24 40"><defs><style>.cls-1{fill:#28728d;}</style></defs><title>QnA</title><g id="Layer_2" data-name="Layer 2"><g id="Connect"><path class="cls-1" d="M13,40H11a1,1,0,0,1,0-2h2a1,1,0,0,1,0,2Z"/><path class="cls-1" d="M12,0A12,12,0,0,0,0,12a16.7,16.7,0,0,0,2.11,7.8,25.33,25.33,0,0,1,1.65,3.42l1.6,4.25a3.89,3.89,0,0,0,1.28,1.67A3,3,0,0,0,6.77,33,3,3,0,0,0,9,38h6a3,3,0,0,0,2.23-5,3,3,0,0,0,.12-3.85,3.87,3.87,0,0,0,1.28-1.67l1.59-4.25a25.55,25.55,0,0,1,1.65-3.42A16.69,16.69,0,0,0,24,12,12,12,0,0,0,12,0Zm3,36H9a1,1,0,0,1,0-2h6a1,1,0,0,1,0,2Zm1-5a1,1,0,0,1-1,1H9a1,1,0,0,1,0-2h6A1,1,0,0,1,16,31Zm4.17-12.23a27.54,27.54,0,0,0-1.81,3.75l-1.59,4.25A2.12,2.12,0,0,1,15,28H9a2.12,2.12,0,0,1-1.77-1.22l-1.6-4.25a27.65,27.65,0,0,0-1.81-3.75A14.76,14.76,0,0,1,2,12a10,10,0,0,1,20,0A14.85,14.85,0,0,1,20.17,18.77Z"/></g></g></svg>