<?xml version="1.0" encoding="UTF-8" standalone="no"?>
<svg
   xmlns:dc="http://purl.org/dc/elements/1.1/"
   xmlns:cc="http://creativecommons.org/ns#"
   xmlns:rdf="http://www.w3.org/1999/02/22-rdf-syntax-ns#"
   xmlns:svg="http://www.w3.org/2000/svg"
   xmlns="http://www.w3.org/2000/svg"
   xmlns:xlink="http://www.w3.org/1999/xlink"
   xmlns:sodipodi="http://sodipodi.sourceforge.net/DTD/sodipodi-0.dtd"
   xmlns:inkscape="http://www.inkscape.org/namespaces/inkscape"
   width="289.12222"
   height="288.29608"
   id="svg2"
   version="1.1"
   inkscape:version="0.48.4 r9939"
   sodipodi:docname="search.svg">
  <sodipodi:namedview
     pagecolor="#ffffff"
     bordercolor="#666666"
     borderopacity="1"
     objecttolerance="10"
     gridtolerance="10"
     guidetolerance="10"
     inkscape:pageopacity="0"
     inkscape:pageshadow="2"
     inkscape:window-width="1920"
     inkscape:window-height="1057"
     id="namedview18"
     showgrid="false"
     fit-margin-top="0"
     fit-margin-left="0"
     fit-margin-right="0"
     fit-margin-bottom="0"
     inkscape:zoom="0.21024131"
     inkscape:cx="157.2014"
     inkscape:cy="92.8853"
     inkscape:window-x="-8"
     inkscape:window-y="-8"
     inkscape:window-maximized="1"
     inkscape:current-layer="svg2" />
  <title
     id="title4">search icon</title>
  <defs
     id="defs6">
    <linearGradient
       id="linearGradient12975">
      <stop
         stop-color="#ffffff"
         id="stop12977"
         offset="0" />
      <stop
         stop-color="#d2d5d8"
         id="stop12979"
         offset="1" />
    </linearGradient>
    <linearGradient
       y2="1.236288"
       x2="0.162791"
       y1="0.166667"
       x1="0.5"
       id="linearGradient12981"
       xlink:href="#linearGradient12975" />
  </defs>
  <metadata
     id="metadata12220">image/svg+xmlSergio Luiz Araujo Silvasearchiconsinformaticcomputer<rdf:RDF>
  <cc:Work
     rdf:about="">
    <dc:format>image/svg+xml</dc:format>
    <dc:type
       rdf:resource="http://purl.org/dc/dcmitype/StillImage" />
  </cc:Work>
</rdf:RDF>
</metadata>
  <g
     id="g13"
     transform="translate(-263.4312,-389.63124)">
    <title
       id="title15">Layer 1</title>
    <path
       id="path12423"
       d="M 295.93899,422.086 C 252.666,465.358 252.56,536.245 295.83301,579.51801 332.496,616.18103 389.035,621.76801 431.754,596.284 l 76.34399,74.23498 c 10.50699,10.198 27.08499,9.82105 37.11697,-0.84399 10.03302,-10.66498 9.77002,-27.44599 -0.73797,-37.64398 L 469.29401,559.16699 C 495.655,516.32001 490.302,459.12201 453.26599,422.086 c -43.27298,-43.27301 -114.05499,-43.27301 -157.327,0 l 0,0 z m 31.73899,31.73901 c 26.10202,-26.10202 67.74603,-26.10202 93.84802,0 26.10199,26.10199 26.10199,67.74598 0,93.84796 -26.10199,26.10206 -67.746,26.10206 -93.84802,0 -26.10199,-26.10199 -26.10199,-67.74597 0,-93.84796 z"
       inkscape:connector-curvature="0"
       style="fill:#454040;stroke-width:9.75617313" />
  </g>
</svg>
