<svg height="23.931423" width="24.000002" xmlns="http://www.w3.org/2000/svg"><path d="m295.93899 422.086c-43.27299 43.272-43.37899 114.159-.10598 157.43201 36.66299 36.66302 93.20199 42.25 135.92099 16.76599l76.34399 74.23498c10.50699 10.198 27.08499 9.82105 37.11697-.84399 10.03302-10.66498 9.77002-27.44599-.73797-37.64398l-75.18298-72.86402c26.36099-42.84698 21.00799-100.04498-16.02802-137.08099-43.27298-43.27301-114.05499-43.27301-157.327 0zm31.73899 31.73901c26.10202-26.10202 67.74603-26.10202 93.84802 0 26.10199 26.10199 26.10199 67.74598 0 93.84796-26.10199 26.10206-67.746 26.10206-93.84802 0-26.10199-26.10199-26.10199-67.74597 0-93.84796z" fill="#454040" stroke-width="9.75617313" transform="matrix(.07609239 0 0 .07609239 -19.004637 -28.545516)"/></svg>